<svg width="64" height="64" viewBox="0 0 64 64" fill="none" xmlns="http://www.w3.org/2000/svg">
    <rect width="64" height="64" fill="url(#paint0_radial_1_23)" />
    <path d="M10.344 37.928V39H6.64V33.456H7.888V37.928H10.344ZM12.7696 38.168C12.8869 38.168 12.9989 38.1653 13.1056 38.16C13.2122 38.1547 13.2976 38.1467 13.3616 38.136V37.232C13.3136 37.2213 13.2416 37.2107 13.1456 37.2C13.0496 37.1893 12.9616 37.184 12.8816 37.184C12.7696 37.184 12.6629 37.192 12.5616 37.208C12.4656 37.2187 12.3802 37.2427 12.3056 37.28C12.2309 37.3173 12.1722 37.368 12.1296 37.432C12.0869 37.496 12.0656 37.576 12.0656 37.672C12.0656 37.8587 12.1269 37.9893 12.2496 38.064C12.3776 38.1333 12.5509 38.168 12.7696 38.168ZM12.6736 34.68C13.0256 34.68 13.3189 34.72 13.5536 34.8C13.7882 34.88 13.9749 34.9947 14.1136 35.144C14.2576 35.2933 14.3589 35.4747 14.4176 35.688C14.4762 35.9013 14.5056 36.1387 14.5056 36.4V38.88C14.3349 38.9173 14.0976 38.96 13.7936 39.008C13.4896 39.0613 13.1216 39.088 12.6896 39.088C12.4176 39.088 12.1696 39.064 11.9456 39.016C11.7269 38.968 11.5376 38.8907 11.3776 38.784C11.2176 38.672 11.0949 38.528 11.0096 38.352C10.9242 38.176 10.8816 37.96 10.8816 37.704C10.8816 37.4587 10.9296 37.2507 11.0256 37.08C11.1269 36.9093 11.2602 36.7733 11.4256 36.672C11.5909 36.5707 11.7802 36.4987 11.9936 36.456C12.2069 36.408 12.4282 36.384 12.6576 36.384C12.8122 36.384 12.9482 36.392 13.0656 36.408C13.1882 36.4187 13.2869 36.4347 13.3616 36.456V36.344C13.3616 36.1413 13.3002 35.9787 13.1776 35.856C13.0549 35.7333 12.8416 35.672 12.5376 35.672C12.3349 35.672 12.1349 35.688 11.9376 35.72C11.7402 35.7467 11.5696 35.7867 11.4256 35.84L11.2736 34.88C11.3429 34.8587 11.4282 34.8373 11.5296 34.816C11.6362 34.7893 11.7509 34.768 11.8736 34.752C11.9962 34.7307 12.1242 34.7147 12.2576 34.704C12.3962 34.688 12.5349 34.68 12.6736 34.68ZM15.5834 34.936C15.7861 34.8773 16.0474 34.824 16.3674 34.776C16.6874 34.7227 17.0234 34.696 17.3754 34.696C17.7328 34.696 18.0288 34.744 18.2634 34.84C18.5034 34.9307 18.6928 35.0613 18.8314 35.232C18.9701 35.4027 19.0688 35.6053 19.1274 35.84C19.1861 36.0747 19.2154 36.336 19.2154 36.624V39H18.0234V36.768C18.0234 36.384 17.9728 36.112 17.8714 35.952C17.7701 35.792 17.5808 35.712 17.3034 35.712C17.2181 35.712 17.1274 35.7173 17.0314 35.728C16.9354 35.7333 16.8501 35.7413 16.7754 35.752V39H15.5834V34.936ZM21.3104 36.864C21.3104 37.232 21.393 37.528 21.5584 37.752C21.7237 37.976 21.969 38.088 22.2944 38.088C22.401 38.088 22.4997 38.0853 22.5904 38.08C22.681 38.0693 22.7557 38.0587 22.8144 38.048V35.88C22.7397 35.832 22.641 35.792 22.5184 35.76C22.401 35.728 22.281 35.712 22.1584 35.712C21.593 35.712 21.3104 36.096 21.3104 36.864ZM24.0064 38.864C23.8997 38.896 23.777 38.928 23.6384 38.96C23.4997 38.9867 23.353 39.0107 23.1984 39.032C23.049 39.0533 22.8944 39.0693 22.7344 39.08C22.5797 39.096 22.4304 39.104 22.2864 39.104C21.9397 39.104 21.6304 39.0533 21.3584 38.952C21.0864 38.8507 20.857 38.7067 20.6704 38.52C20.4837 38.328 20.3397 38.0987 20.2384 37.832C20.1424 37.56 20.0944 37.256 20.0944 36.92C20.0944 36.5787 20.137 36.272 20.2224 36C20.3077 35.7227 20.4304 35.488 20.5904 35.296C20.7504 35.104 20.945 34.9573 21.1744 34.856C21.409 34.7547 21.6757 34.704 21.9744 34.704C22.1397 34.704 22.2864 34.72 22.4144 34.752C22.5477 34.784 22.681 34.8293 22.8144 34.888V32.984L24.0064 32.792V38.864ZM26.3145 39H25.1225V34.792H26.3145V39ZM26.4265 33.576C26.4265 33.7947 26.3545 33.968 26.2105 34.096C26.0718 34.2187 25.9065 34.28 25.7145 34.28C25.5225 34.28 25.3545 34.2187 25.2105 34.096C25.0718 33.968 25.0025 33.7947 25.0025 33.576C25.0025 33.3573 25.0718 33.1867 25.2105 33.064C25.3545 32.936 25.5225 32.872 25.7145 32.872C25.9065 32.872 26.0718 32.936 26.2105 33.064C26.3545 33.1867 26.4265 33.3573 26.4265 33.576ZM27.435 34.936C27.6377 34.8773 27.899 34.824 28.219 34.776C28.539 34.7227 28.875 34.696 29.227 34.696C29.5843 34.696 29.8803 34.744 30.115 34.84C30.355 34.9307 30.5443 35.0613 30.683 35.232C30.8217 35.4027 30.9203 35.6053 30.979 35.84C31.0377 36.0747 31.067 36.336 31.067 36.624V39H29.875V36.768C29.875 36.384 29.8243 36.112 29.723 35.952C29.6217 35.792 29.4323 35.712 29.155 35.712C29.0697 35.712 28.979 35.7173 28.883 35.728C28.787 35.7333 28.7017 35.7413 28.627 35.752V39H27.435V34.936ZM33.1619 36.76C33.1619 37.4267 33.4313 37.76 33.9699 37.76C34.0926 37.76 34.2073 37.744 34.3139 37.712C34.4206 37.68 34.5113 37.6427 34.5859 37.6V35.696C34.5273 35.6853 34.4579 35.6773 34.3779 35.672C34.2979 35.6613 34.2046 35.656 34.0979 35.656C33.7833 35.656 33.5486 35.76 33.3939 35.968C33.2393 36.176 33.1619 36.44 33.1619 36.76ZM35.7779 38.472C35.7779 39.16 35.6019 39.6693 35.2499 40C34.9033 40.336 34.3646 40.504 33.6339 40.504C33.3779 40.504 33.1219 40.48 32.8659 40.432C32.6099 40.3893 32.3726 40.3307 32.1539 40.256L32.3619 39.256C32.5486 39.3307 32.7433 39.3893 32.9459 39.432C33.1539 39.4747 33.3886 39.496 33.6499 39.496C33.9913 39.496 34.2313 39.4213 34.3699 39.272C34.5139 39.1227 34.5859 38.9307 34.5859 38.696V38.544C34.4579 38.6027 34.3246 38.648 34.1859 38.68C34.0526 38.7067 33.9059 38.72 33.7459 38.72C33.1646 38.72 32.7193 38.5493 32.4099 38.208C32.1006 37.8613 31.9459 37.3787 31.9459 36.76C31.9459 36.4507 31.9939 36.1707 32.0899 35.92C32.1859 35.664 32.3246 35.4453 32.5059 35.264C32.6926 35.0827 32.9193 34.944 33.1859 34.848C33.4526 34.7467 33.7539 34.696 34.0899 34.696C34.2339 34.696 34.3806 34.704 34.5299 34.72C34.6846 34.7307 34.8366 34.7467 34.9859 34.768C35.1353 34.7893 35.2766 34.816 35.4099 34.848C35.5486 34.8747 35.6713 34.904 35.7779 34.936V38.472ZM40.5618 33.392C41.3885 33.392 42.0231 33.5387 42.4658 33.832C42.9085 34.12 43.1298 34.5947 43.1298 35.256C43.1298 35.9227 42.9058 36.4053 42.4578 36.704C42.0098 36.9973 41.3698 37.144 40.5378 37.144H40.1458V39H38.8978V33.536C39.1698 33.4827 39.4578 33.4453 39.7618 33.424C40.0658 33.4027 40.3325 33.392 40.5618 33.392ZM40.6418 34.456C40.5511 34.456 40.4605 34.4587 40.3698 34.464C40.2845 34.4693 40.2098 34.4747 40.1458 34.48V36.08H40.5378C40.9698 36.08 41.2951 36.0213 41.5138 35.904C41.7325 35.7867 41.8418 35.568 41.8418 35.248C41.8418 35.0933 41.8125 34.9653 41.7538 34.864C41.7005 34.7627 41.6205 34.6827 41.5138 34.624C41.4125 34.56 41.2871 34.5173 41.1378 34.496C40.9885 34.4693 40.8231 34.456 40.6418 34.456ZM45.418 38.168C45.5353 38.168 45.6473 38.1653 45.754 38.16C45.8607 38.1547 45.946 38.1467 46.01 38.136V37.232C45.962 37.2213 45.89 37.2107 45.794 37.2C45.698 37.1893 45.61 37.184 45.53 37.184C45.418 37.184 45.3113 37.192 45.21 37.208C45.114 37.2187 45.0287 37.2427 44.954 37.28C44.8793 37.3173 44.8207 37.368 44.778 37.432C44.7353 37.496 44.714 37.576 44.714 37.672C44.714 37.8587 44.7753 37.9893 44.898 38.064C45.026 38.1333 45.1993 38.168 45.418 38.168ZM45.322 34.68C45.674 34.68 45.9673 34.72 46.202 34.8C46.4367 34.88 46.6233 34.9947 46.762 35.144C46.906 35.2933 47.0073 35.4747 47.066 35.688C47.1247 35.9013 47.154 36.1387 47.154 36.4V38.88C46.9833 38.9173 46.746 38.96 46.442 39.008C46.138 39.0613 45.77 39.088 45.338 39.088C45.066 39.088 44.818 39.064 44.594 39.016C44.3753 38.968 44.186 38.8907 44.026 38.784C43.866 38.672 43.7433 38.528 43.658 38.352C43.5727 38.176 43.53 37.96 43.53 37.704C43.53 37.4587 43.578 37.2507 43.674 37.08C43.7753 36.9093 43.9087 36.7733 44.074 36.672C44.2393 36.5707 44.4287 36.4987 44.642 36.456C44.8553 36.408 45.0767 36.384 45.306 36.384C45.4607 36.384 45.5967 36.392 45.714 36.408C45.8367 36.4187 45.9353 36.4347 46.01 36.456V36.344C46.01 36.1413 45.9487 35.9787 45.826 35.856C45.7033 35.7333 45.49 35.672 45.186 35.672C44.9833 35.672 44.7833 35.688 44.586 35.72C44.3887 35.7467 44.218 35.7867 44.074 35.84L43.922 34.88C43.9913 34.8587 44.0767 34.8373 44.178 34.816C44.2847 34.7893 44.3993 34.768 44.522 34.752C44.6447 34.7307 44.7727 34.7147 44.906 34.704C45.0447 34.688 45.1833 34.68 45.322 34.68ZM49.2479 36.76C49.2479 37.4267 49.5172 37.76 50.0559 37.76C50.1785 37.76 50.2932 37.744 50.3999 37.712C50.5065 37.68 50.5972 37.6427 50.6719 37.6V35.696C50.6132 35.6853 50.5439 35.6773 50.4639 35.672C50.3839 35.6613 50.2905 35.656 50.1839 35.656C49.8692 35.656 49.6345 35.76 49.4799 35.968C49.3252 36.176 49.2479 36.44 49.2479 36.76ZM51.8639 38.472C51.8639 39.16 51.6879 39.6693 51.3359 40C50.9892 40.336 50.4505 40.504 49.7199 40.504C49.4639 40.504 49.2079 40.48 48.9519 40.432C48.6959 40.3893 48.4585 40.3307 48.2399 40.256L48.4479 39.256C48.6345 39.3307 48.8292 39.3893 49.0319 39.432C49.2399 39.4747 49.4745 39.496 49.7359 39.496C50.0772 39.496 50.3172 39.4213 50.4559 39.272C50.5999 39.1227 50.6719 38.9307 50.6719 38.696V38.544C50.5439 38.6027 50.4105 38.648 50.2719 38.68C50.1385 38.7067 49.9919 38.72 49.8319 38.72C49.2505 38.72 48.8052 38.5493 48.4959 38.208C48.1865 37.8613 48.0319 37.3787 48.0319 36.76C48.0319 36.4507 48.0799 36.1707 48.1759 35.92C48.2719 35.664 48.4105 35.4453 48.5919 35.264C48.7785 35.0827 49.0052 34.944 49.2719 34.848C49.5385 34.7467 49.8399 34.696 50.1759 34.696C50.3199 34.696 50.4665 34.704 50.6159 34.72C50.7705 34.7307 50.9225 34.7467 51.0719 34.768C51.2212 34.7893 51.3625 34.816 51.4959 34.848C51.6345 34.8747 51.7572 34.904 51.8639 34.936V38.472ZM52.7819 36.928C52.7819 36.5547 52.8379 36.2293 52.9499 35.952C53.0672 35.6693 53.2192 35.4347 53.4059 35.248C53.5925 35.0613 53.8059 34.92 54.0459 34.824C54.2912 34.728 54.5419 34.68 54.7979 34.68C55.3952 34.68 55.8672 34.864 56.2139 35.232C56.5605 35.5947 56.7339 36.1307 56.7339 36.84C56.7339 36.9093 56.7312 36.9867 56.7259 37.072C56.7205 37.152 56.7152 37.224 56.7099 37.288H54.0059C54.0325 37.5333 54.1472 37.728 54.3499 37.872C54.5525 38.016 54.8245 38.088 55.1659 38.088C55.3845 38.088 55.5979 38.0693 55.8059 38.032C56.0192 37.9893 56.1925 37.9387 56.3259 37.88L56.4859 38.848C56.4219 38.88 56.3365 38.912 56.2299 38.944C56.1232 38.976 56.0032 39.0027 55.8699 39.024C55.7419 39.0507 55.6032 39.072 55.4539 39.088C55.3045 39.104 55.1552 39.112 55.0059 39.112C54.6272 39.112 54.2965 39.056 54.0139 38.944C53.7365 38.832 53.5045 38.68 53.3179 38.488C53.1365 38.2907 53.0005 38.0587 52.9099 37.792C52.8245 37.5253 52.7819 37.2373 52.7819 36.928ZM55.5819 36.472C55.5765 36.3707 55.5579 36.272 55.5259 36.176C55.4992 36.08 55.4539 35.9947 55.3899 35.92C55.3312 35.8453 55.2539 35.784 55.1579 35.736C55.0672 35.688 54.9525 35.664 54.8139 35.664C54.6805 35.664 54.5659 35.688 54.4699 35.736C54.3739 35.7787 54.2939 35.8373 54.2299 35.912C54.1659 35.9867 54.1152 36.0747 54.0779 36.176C54.0459 36.272 54.0219 36.3707 54.0059 36.472H55.5819Z" fill="white" />
    <path d="M22.5774 24.8189C22.549 24.5324 22.4271 24.3099 22.2116 24.1513C21.9962 23.9927 21.7038 23.9134 21.3345 23.9134C21.0836 23.9134 20.8717 23.9489 20.6989 24.0199C20.526 24.0885 20.3935 24.1844 20.3011 24.3075C20.2112 24.4306 20.1662 24.5703 20.1662 24.7266C20.1615 24.8568 20.1887 24.9704 20.2479 25.0675C20.3094 25.1645 20.3935 25.2486 20.5 25.3196C20.6065 25.3883 20.7296 25.4486 20.8693 25.5007C21.009 25.5504 21.1581 25.593 21.3168 25.6286L21.9702 25.7848C22.2874 25.8558 22.5786 25.9505 22.8438 26.0689C23.1089 26.1873 23.3385 26.3329 23.5327 26.5057C23.7268 26.6785 23.8771 26.8821 23.9837 27.1165C24.0926 27.3509 24.1482 27.6196 24.1506 27.9226C24.1482 28.3677 24.0346 28.7536 23.8097 29.0803C23.5871 29.4046 23.2652 29.6567 22.8438 29.8366C22.4247 30.0142 21.9193 30.103 21.3274 30.103C20.7403 30.103 20.2289 30.013 19.7933 29.8331C19.3601 29.6532 19.0215 29.3868 18.7777 29.0341C18.5362 28.679 18.4096 28.2398 18.3977 27.7166H19.8857C19.9022 27.9605 19.9721 28.1641 20.0952 28.3274C20.2206 28.4884 20.3875 28.6103 20.5959 28.6932C20.8066 28.7737 21.0445 28.8139 21.3097 28.8139C21.5701 28.8139 21.7962 28.776 21.9879 28.7003C22.1821 28.6245 22.3324 28.5192 22.4389 28.3842C22.5455 28.2493 22.5987 28.0942 22.5987 27.919C22.5987 27.7557 22.5502 27.6184 22.4531 27.5071C22.3584 27.3958 22.2188 27.3011 22.0341 27.223C21.8518 27.1449 21.6281 27.0739 21.3629 27.0099L20.571 26.8111C19.9579 26.6619 19.4737 26.4287 19.1186 26.1115C18.7635 25.7943 18.5871 25.367 18.5895 24.8295C18.5871 24.3892 18.7043 24.0045 18.9411 23.6754C19.1802 23.3464 19.508 23.0895 19.9247 22.9048C20.3414 22.7202 20.8149 22.6278 21.3452 22.6278C21.8849 22.6278 22.3561 22.7202 22.7585 22.9048C23.1634 23.0895 23.4782 23.3464 23.7031 23.6754C23.928 24.0045 24.044 24.3857 24.0511 24.8189H22.5774ZM28.0577 24.5455V25.6818H24.7729V24.5455H28.0577ZM25.5186 23.2386H27.0314V28.3239C27.0314 28.4635 27.0527 28.5724 27.0953 28.6506C27.138 28.7263 27.1971 28.7796 27.2729 28.8104C27.351 28.8411 27.441 28.8565 27.5428 28.8565C27.6138 28.8565 27.6848 28.8506 27.7559 28.8388C27.8269 28.8246 27.8813 28.8139 27.9192 28.8068L28.1571 29.9325C28.0814 29.9562 27.9748 29.9834 27.8375 30.0142C27.7002 30.0473 27.5333 30.0675 27.3368 30.0746C26.9722 30.0888 26.6526 30.0402 26.378 29.929C26.1058 29.8177 25.8939 29.6449 25.7424 29.4105C25.5908 29.1761 25.5163 28.8802 25.5186 28.5227V23.2386ZM31.449 30.1065C30.8974 30.1065 30.4204 29.9893 30.0179 29.755C29.6178 29.5182 29.3089 29.1892 29.0911 28.7678C28.8733 28.344 28.7644 27.8527 28.7644 27.294C28.7644 26.7306 28.8733 26.2382 29.0911 25.8168C29.3089 25.393 29.6178 25.0639 30.0179 24.8295C30.4204 24.5928 30.8974 24.4744 31.449 24.4744C32.0007 24.4744 32.4765 24.5928 32.8766 24.8295C33.2791 25.0639 33.5892 25.393 33.807 25.8168C34.0248 26.2382 34.1337 26.7306 34.1337 27.294C34.1337 27.8527 34.0248 28.344 33.807 28.7678C33.5892 29.1892 33.2791 29.5182 32.8766 29.755C32.4765 29.9893 32.0007 30.1065 31.449 30.1065ZM31.4561 28.9347C31.7071 28.9347 31.9166 28.8636 32.0847 28.7216C32.2528 28.5772 32.3794 28.3807 32.4647 28.1321C32.5523 27.8835 32.5961 27.6006 32.5961 27.2834C32.5961 26.9661 32.5523 26.6832 32.4647 26.4347C32.3794 26.1861 32.2528 25.9896 32.0847 25.8452C31.9166 25.7008 31.7071 25.6286 31.4561 25.6286C31.2028 25.6286 30.9898 25.7008 30.8169 25.8452C30.6465 25.9896 30.5175 26.1861 30.4299 26.4347C30.3446 26.6832 30.302 26.9661 30.302 27.2834C30.302 27.6006 30.3446 27.8835 30.4299 28.1321C30.5175 28.3807 30.6465 28.5772 30.8169 28.7216C30.9898 28.8636 31.2028 28.9347 31.4561 28.9347ZM36.6301 26.8466V30H35.1174V24.5455H36.5591V25.5078H36.623C36.7438 25.1906 36.9462 24.9396 37.2303 24.755C37.5144 24.5679 37.8588 24.4744 38.2637 24.4744C38.6425 24.4744 38.9727 24.5573 39.2544 24.723C39.5362 24.8887 39.7551 25.1255 39.9114 25.4332C40.0676 25.7386 40.1458 26.1032 40.1458 26.527V30H38.633V26.7969C38.6354 26.4631 38.5501 26.2027 38.3773 26.0156C38.2045 25.8262 37.9666 25.7315 37.6635 25.7315C37.4599 25.7315 37.28 25.7753 37.1238 25.8629C36.9699 25.9505 36.8491 26.0784 36.7615 26.2464C36.6763 26.4122 36.6325 26.6122 36.6301 26.8466ZM43.8239 30.1065C43.2628 30.1065 42.7798 29.9929 42.375 29.7656C41.9725 29.536 41.6624 29.2116 41.4446 28.7926C41.2268 28.3712 41.1179 27.8729 41.1179 27.2976C41.1179 26.7365 41.2268 26.2441 41.4446 25.8203C41.6624 25.3965 41.969 25.0663 42.3643 24.8295C42.7621 24.5928 43.2285 24.4744 43.7635 24.4744C44.1233 24.4744 44.4583 24.5324 44.7685 24.6484C45.081 24.7621 45.3532 24.9337 45.5852 25.1634C45.8196 25.393 46.0019 25.6818 46.1321 26.0298C46.2623 26.3755 46.3274 26.7803 46.3274 27.2443V27.6598H41.7216V26.7223H44.9034C44.9034 26.5045 44.8561 26.3116 44.7614 26.1435C44.6667 25.9754 44.5353 25.844 44.3672 25.7493C44.2015 25.6522 44.0085 25.6037 43.7884 25.6037C43.5587 25.6037 43.3551 25.657 43.1776 25.7635C43.0024 25.8677 42.8651 26.0085 42.7656 26.1861C42.6662 26.3613 42.6153 26.5566 42.6129 26.772V27.6634C42.6129 27.9332 42.6626 28.1664 42.7621 28.3629C42.8639 28.5594 43.0071 28.7109 43.1918 28.8175C43.3764 28.924 43.5954 28.9773 43.8487 28.9773C44.0168 28.9773 44.1707 28.9536 44.3104 28.9062C44.45 28.8589 44.5696 28.7879 44.669 28.6932C44.7685 28.5985 44.8442 28.4825 44.8963 28.3452L46.2955 28.4375C46.2244 28.7737 46.0788 29.0672 45.8587 29.3182C45.6409 29.5668 45.3591 29.7609 45.0135 29.9006C44.6702 30.0379 44.2737 30.1065 43.8239 30.1065Z" fill="white" />
    <defs>
        <radialGradient id="paint0_radial_1_23" cx="0" cy="0" r="1" gradientUnits="userSpaceOnUse" gradientTransform="translate(32 32) rotate(90) scale(32)">
            <stop stop-color="#010795" />
            <stop offset="1" stop-color="#006416" />
        </radialGradient>
    </defs>
</svg>