<svg width="64" height="64" viewBox="0 0 64 64" fill="none" xmlns="http://www.w3.org/2000/svg">
    <rect width="64" height="64" fill="url(#paint0_radial_1_15)" />
    <path d="M15.232 23.4C16.0373 23.4 16.6533 23.5467 17.08 23.84C17.512 24.1333 17.728 24.592 17.728 25.216C17.728 25.5413 17.6693 25.8213 17.552 26.056C17.44 26.2853 17.2747 26.4747 17.056 26.624C16.8373 26.768 16.5707 26.8747 16.256 26.944C15.9413 27.0133 15.5813 27.048 15.176 27.048H14.672V29H13.664V23.536C13.8987 23.4827 14.1573 23.448 14.44 23.432C14.728 23.4107 14.992 23.4 15.232 23.4ZM15.304 24.272C15.048 24.272 14.8373 24.28 14.672 24.296V26.184H15.16C15.6453 26.184 16.0187 26.1173 16.28 25.984C16.5413 25.8453 16.672 25.5867 16.672 25.208C16.672 25.0267 16.6373 24.8747 16.568 24.752C16.4987 24.6293 16.4027 24.5333 16.28 24.464C16.1573 24.3947 16.0107 24.3467 15.84 24.32C15.6747 24.288 15.496 24.272 15.304 24.272ZM20.9844 25.688C20.9044 25.6613 20.7924 25.6347 20.6484 25.608C20.5097 25.576 20.347 25.56 20.1604 25.56C20.0537 25.56 19.939 25.5707 19.8164 25.592C19.699 25.6133 19.6164 25.632 19.5684 25.648V29H18.6004V25.016C18.787 24.9467 19.019 24.8827 19.2964 24.824C19.579 24.76 19.891 24.728 20.2324 24.728C20.2964 24.728 20.371 24.7333 20.4564 24.744C20.5417 24.7493 20.627 24.76 20.7124 24.776C20.7977 24.7867 20.8804 24.8027 20.9604 24.824C21.0404 24.84 21.1044 24.856 21.1524 24.872L20.9844 25.688ZM25.6109 26.904C25.6109 27.2347 25.5629 27.536 25.4669 27.808C25.3709 28.08 25.2349 28.312 25.0589 28.504C24.8829 28.696 24.6696 28.8453 24.4189 28.952C24.1736 29.0587 23.9016 29.112 23.6029 29.112C23.3043 29.112 23.0323 29.0587 22.7869 28.952C22.5416 28.8453 22.3309 28.696 22.1549 28.504C21.9789 28.312 21.8403 28.08 21.7389 27.808C21.6429 27.536 21.5949 27.2347 21.5949 26.904C21.5949 26.5733 21.6429 26.2747 21.7389 26.008C21.8403 25.736 21.9789 25.504 22.1549 25.312C22.3363 25.12 22.5496 24.9733 22.7949 24.872C23.0403 24.7653 23.3096 24.712 23.6029 24.712C23.8963 24.712 24.1656 24.7653 24.4109 24.872C24.6616 24.9733 24.8749 25.12 25.0509 25.312C25.2269 25.504 25.3629 25.736 25.4589 26.008C25.5603 26.2747 25.6109 26.5733 25.6109 26.904ZM24.6189 26.904C24.6189 26.488 24.5283 26.16 24.3469 25.92C24.1709 25.6747 23.9229 25.552 23.6029 25.552C23.2829 25.552 23.0323 25.6747 22.8509 25.92C22.6749 26.16 22.5869 26.488 22.5869 26.904C22.5869 27.3253 22.6749 27.6587 22.8509 27.904C23.0323 28.1493 23.2829 28.272 23.6029 28.272C23.9229 28.272 24.1709 28.1493 24.3469 27.904C24.5283 27.6587 24.6189 27.3253 24.6189 26.904ZM27.3682 26.8C27.3682 27.2107 27.4562 27.512 27.6322 27.704C27.8135 27.8907 28.0455 27.984 28.3282 27.984C28.4829 27.984 28.6269 27.9627 28.7602 27.92C28.8989 27.8773 29.0109 27.8267 29.0962 27.768V25.6C29.0269 25.584 28.9415 25.5707 28.8402 25.56C28.7389 25.544 28.6109 25.536 28.4562 25.536C28.1042 25.536 27.8349 25.6533 27.6482 25.888C27.4615 26.1173 27.3682 26.4213 27.3682 26.8ZM30.0642 28.576C30.0642 29.2427 29.8935 29.7307 29.5522 30.04C29.2162 30.3493 28.6989 30.504 28.0002 30.504C27.7442 30.504 27.4935 30.4827 27.2482 30.44C27.0082 30.3973 26.7895 30.3413 26.5922 30.272L26.7682 29.448C26.9335 29.5173 27.1202 29.5733 27.3282 29.616C27.5415 29.6587 27.7709 29.68 28.0162 29.68C28.4055 29.68 28.6829 29.6 28.8482 29.44C29.0135 29.28 29.0962 29.0427 29.0962 28.728V28.568C29.0002 28.616 28.8722 28.664 28.7122 28.712C28.5575 28.76 28.3789 28.784 28.1762 28.784C27.9095 28.784 27.6642 28.7413 27.4402 28.656C27.2215 28.5707 27.0322 28.4453 26.8722 28.28C26.7175 28.1147 26.5949 27.9093 26.5042 27.664C26.4189 27.4133 26.3762 27.1253 26.3762 26.8C26.3762 26.496 26.4215 26.216 26.5122 25.96C26.6082 25.704 26.7442 25.4853 26.9202 25.304C27.1015 25.1227 27.3202 24.9813 27.5762 24.88C27.8322 24.7787 28.1229 24.728 28.4482 24.728C28.7629 24.728 29.0615 24.752 29.3442 24.8C29.6269 24.848 29.8669 24.8987 30.0642 24.952V28.576ZM33.6797 25.688C33.5997 25.6613 33.4877 25.6347 33.3437 25.608C33.205 25.576 33.0424 25.56 32.8557 25.56C32.749 25.56 32.6344 25.5707 32.5117 25.592C32.3944 25.6133 32.3117 25.632 32.2637 25.648V29H31.2957V25.016C31.4824 24.9467 31.7144 24.8827 31.9917 24.824C32.2744 24.76 32.5864 24.728 32.9277 24.728C32.9917 24.728 33.0664 24.7333 33.1517 24.744C33.237 24.7493 33.3224 24.76 33.4077 24.776C33.493 24.7867 33.5757 24.8027 33.6557 24.824C33.7357 24.84 33.7997 24.856 33.8477 24.872L33.6797 25.688ZM35.9943 28.32C36.2929 28.32 36.5196 28.304 36.6743 28.272V27.2C36.6209 27.184 36.5436 27.168 36.4423 27.152C36.3409 27.136 36.2289 27.128 36.1063 27.128C35.9996 27.128 35.8903 27.136 35.7783 27.152C35.6716 27.168 35.5729 27.1973 35.4823 27.24C35.3969 27.2827 35.3276 27.344 35.2743 27.424C35.2209 27.4987 35.1943 27.5947 35.1943 27.712C35.1943 27.9413 35.2663 28.1013 35.4103 28.192C35.5543 28.2773 35.7489 28.32 35.9943 28.32ZM35.9143 24.712C36.2343 24.712 36.5036 24.752 36.7223 24.832C36.9409 24.912 37.1143 25.024 37.2423 25.168C37.3756 25.312 37.4689 25.488 37.5223 25.696C37.5809 25.8987 37.6103 26.1227 37.6103 26.368V28.904C37.4609 28.936 37.2343 28.9733 36.9303 29.016C36.6316 29.064 36.2929 29.088 35.9143 29.088C35.6636 29.088 35.4343 29.064 35.2263 29.016C35.0183 28.968 34.8396 28.8907 34.6903 28.784C34.5463 28.6773 34.4316 28.5387 34.3463 28.368C34.2663 28.1973 34.2263 27.9867 34.2263 27.736C34.2263 27.496 34.2716 27.2933 34.3623 27.128C34.4583 26.9627 34.5863 26.8293 34.7463 26.728C34.9063 26.6213 35.0903 26.5467 35.2983 26.504C35.5116 26.456 35.7329 26.432 35.9622 26.432C36.0689 26.432 36.1809 26.44 36.2983 26.456C36.4156 26.4667 36.5409 26.488 36.6743 26.52V26.36C36.6743 26.248 36.6609 26.1413 36.6343 26.04C36.6076 25.9387 36.5596 25.8507 36.4903 25.776C36.4263 25.696 36.3383 25.6347 36.2263 25.592C36.1196 25.5493 35.9836 25.528 35.8183 25.528C35.5943 25.528 35.3889 25.544 35.2023 25.576C35.0156 25.608 34.8636 25.6453 34.7463 25.688L34.6263 24.904C34.7489 24.8613 34.9276 24.8187 35.1623 24.776C35.3969 24.7333 35.6476 24.712 35.9143 24.712ZM41.1797 26.8C41.1797 26.3627 41.1237 26.048 41.0117 25.856C40.905 25.6587 40.7024 25.56 40.4037 25.56C40.297 25.56 40.1797 25.568 40.0517 25.584C39.9237 25.6 39.8277 25.6133 39.7637 25.624V29H38.7957V24.952C38.9824 24.8987 39.225 24.848 39.5237 24.8C39.8277 24.752 40.1477 24.728 40.4837 24.728C40.7717 24.728 41.0064 24.7653 41.1877 24.84C41.3744 24.9147 41.529 25.0133 41.6517 25.136C41.7104 25.0933 41.785 25.048 41.8757 25C41.9664 24.952 42.0677 24.9093 42.1797 24.872C42.2917 24.8293 42.409 24.7947 42.5317 24.768C42.6597 24.7413 42.7877 24.728 42.9157 24.728C43.241 24.728 43.5077 24.776 43.7157 24.872C43.929 24.9627 44.0944 25.0933 44.2117 25.264C44.3344 25.4293 44.417 25.632 44.4597 25.872C44.5077 26.1067 44.5317 26.3653 44.5317 26.648V29H43.5637V26.8C43.5637 26.3627 43.5104 26.048 43.4037 25.856C43.297 25.6587 43.0917 25.56 42.7877 25.56C42.633 25.56 42.4864 25.5867 42.3477 25.64C42.209 25.688 42.105 25.736 42.0357 25.784C42.0784 25.9173 42.1077 26.0587 42.1237 26.208C42.1397 26.3573 42.1477 26.5173 42.1477 26.688V29H41.1797V26.8ZM47.1896 28.32C47.4882 28.32 47.7149 28.304 47.8696 28.272V27.2C47.8162 27.184 47.7389 27.168 47.6376 27.152C47.5362 27.136 47.4242 27.128 47.3016 27.128C47.1949 27.128 47.0856 27.136 46.9736 27.152C46.8669 27.168 46.7682 27.1973 46.6776 27.24C46.5922 27.2827 46.5229 27.344 46.4696 27.424C46.4162 27.4987 46.3896 27.5947 46.3896 27.712C46.3896 27.9413 46.4616 28.1013 46.6056 28.192C46.7496 28.2773 46.9442 28.32 47.1896 28.32ZM47.1096 24.712C47.4296 24.712 47.6989 24.752 47.9176 24.832C48.1362 24.912 48.3096 25.024 48.4376 25.168C48.5709 25.312 48.6642 25.488 48.7176 25.696C48.7762 25.8987 48.8056 26.1227 48.8056 26.368V28.904C48.6562 28.936 48.4296 28.9733 48.1256 29.016C47.8269 29.064 47.4882 29.088 47.1096 29.088C46.8589 29.088 46.6296 29.064 46.4216 29.016C46.2136 28.968 46.0349 28.8907 45.8856 28.784C45.7416 28.6773 45.6269 28.5387 45.5416 28.368C45.4616 28.1973 45.4216 27.9867 45.4216 27.736C45.4216 27.496 45.4669 27.2933 45.5576 27.128C45.6536 26.9627 45.7816 26.8293 45.9416 26.728C46.1016 26.6213 46.2856 26.5467 46.4936 26.504C46.7069 26.456 46.9282 26.432 47.1576 26.432C47.2642 26.432 47.3762 26.44 47.4936 26.456C47.6109 26.4667 47.7362 26.488 47.8696 26.52V26.36C47.8696 26.248 47.8562 26.1413 47.8296 26.04C47.8029 25.9387 47.7549 25.8507 47.6856 25.776C47.6216 25.696 47.5336 25.6347 47.4216 25.592C47.3149 25.5493 47.1789 25.528 47.0136 25.528C46.7896 25.528 46.5842 25.544 46.3976 25.576C46.2109 25.608 46.0589 25.6453 45.9416 25.688L45.8216 24.904C45.9442 24.8613 46.1229 24.8187 46.3576 24.776C46.5922 24.7333 46.8429 24.712 47.1096 24.712Z" fill="white" />
    <path d="M4.6321 31.7273H6.52841L8.53125 36.6136H8.61648L10.6193 31.7273H12.5156V39H11.0241V34.2663H10.9638L9.08168 38.9645H8.06605L6.18395 34.2486H6.12358V39H4.6321V31.7273ZM16.2399 39.1065C15.6788 39.1065 15.1958 38.9929 14.791 38.7656C14.3886 38.536 14.0784 38.2116 13.8606 37.7926C13.6428 37.3712 13.5339 36.8729 13.5339 36.2976C13.5339 35.7365 13.6428 35.2441 13.8606 34.8203C14.0784 34.3965 14.385 34.0663 14.7804 33.8295C15.1781 33.5928 15.6445 33.4744 16.1795 33.4744C16.5394 33.4744 16.8743 33.5324 17.1845 33.6484C17.497 33.7621 17.7692 33.9337 18.0012 34.1634C18.2356 34.393 18.4179 34.6818 18.5481 35.0298C18.6783 35.3755 18.7434 35.7803 18.7434 36.2443V36.6598H14.1376V35.7223H17.3194C17.3194 35.5045 17.2721 35.3116 17.1774 35.1435C17.0827 34.9754 16.9513 34.844 16.7832 34.7493C16.6175 34.6522 16.4245 34.6037 16.2044 34.6037C15.9747 34.6037 15.7711 34.657 15.5936 34.7635C15.4184 34.8677 15.2811 35.0085 15.1816 35.1861C15.0822 35.3613 15.0313 35.5566 15.0289 35.772V36.6634C15.0289 36.9332 15.0787 37.1664 15.1781 37.3629C15.2799 37.5594 15.4231 37.7109 15.6078 37.8175C15.7924 37.924 16.0114 37.9773 16.2647 37.9773C16.4328 37.9773 16.5867 37.9536 16.7264 37.9062C16.8661 37.8589 16.9856 37.7879 17.085 37.6932C17.1845 37.5985 17.2602 37.4825 17.3123 37.3452L18.7115 37.4375C18.6404 37.7737 18.4949 38.0672 18.2747 38.3182C18.0569 38.5668 17.7752 38.7609 17.4295 38.9006C17.0862 39.0379 16.6897 39.1065 16.2399 39.1065ZM21.2434 35.8466V39H19.7306V33.5455H21.1724V34.5078H21.2363C21.3571 34.1906 21.5595 33.9396 21.8436 33.755C22.1277 33.5679 22.4721 33.4744 22.877 33.4744C23.2557 33.4744 23.586 33.5573 23.8677 33.723C24.1494 33.8887 24.3684 34.1255 24.5247 34.4332C24.6809 34.7386 24.7591 35.1032 24.7591 35.527V39H23.2463V35.7969C23.2486 35.4631 23.1634 35.2027 22.9906 35.0156C22.8178 34.8262 22.5798 34.7315 22.2768 34.7315C22.0732 34.7315 21.8933 34.7753 21.737 34.8629C21.5832 34.9505 21.4624 35.0784 21.3748 35.2464C21.2896 35.4122 21.2458 35.6122 21.2434 35.8466ZM30.4897 35.1009L29.1048 35.1861C29.0811 35.0677 29.0302 34.9612 28.9521 34.8665C28.8739 34.7694 28.771 34.6925 28.6431 34.6357C28.5176 34.5765 28.3673 34.5469 28.1921 34.5469C27.9577 34.5469 27.7601 34.5966 27.5991 34.696C27.4381 34.7931 27.3576 34.9233 27.3576 35.0866C27.3576 35.2169 27.4097 35.3269 27.5138 35.4169C27.618 35.5069 27.7968 35.5791 28.0501 35.6335L29.0373 35.8324C29.5676 35.9413 29.9629 36.1165 30.2234 36.358C30.4838 36.5994 30.614 36.9167 30.614 37.3097C30.614 37.6671 30.5086 37.9808 30.2979 38.2507C30.0896 38.5206 29.8031 38.7313 29.4386 38.8828C29.0763 39.032 28.6585 39.1065 28.185 39.1065C27.4629 39.1065 26.8877 38.9562 26.4592 38.6555C26.033 38.3525 25.7833 37.9406 25.7099 37.4197L27.1978 37.3416C27.2428 37.5618 27.3517 37.7299 27.5245 37.8459C27.6973 37.9595 27.9187 38.0163 28.1886 38.0163C28.4537 38.0163 28.6668 37.9654 28.8278 37.8636C28.9911 37.7595 29.074 37.6257 29.0763 37.4624C29.074 37.325 29.016 37.2126 28.9023 37.125C28.7887 37.035 28.6135 36.9664 28.3768 36.919L27.4322 36.7308C26.8995 36.6243 26.503 36.4396 26.2425 36.1768C25.9845 35.9141 25.8555 35.5791 25.8555 35.1719C25.8555 34.8215 25.9502 34.5196 26.1396 34.2663C26.3313 34.013 26.6 33.8177 26.9457 33.6804C27.2937 33.5431 27.7009 33.4744 28.1673 33.4744C28.8562 33.4744 29.3983 33.62 29.7937 33.9112C30.1914 34.2024 30.4234 34.599 30.4897 35.1009ZM33.122 39.103C32.774 39.103 32.4638 39.0426 32.1916 38.9219C31.9193 38.7988 31.7039 38.6177 31.5453 38.3786C31.389 38.1371 31.3109 37.8364 31.3109 37.4766C31.3109 37.1735 31.3665 36.919 31.4778 36.7131C31.5891 36.5071 31.7406 36.3414 31.9324 36.2159C32.1241 36.0904 32.3419 35.9957 32.5858 35.9318C32.832 35.8679 33.09 35.8229 33.3599 35.7969C33.6771 35.7637 33.9328 35.733 34.127 35.7045C34.3211 35.6738 34.4619 35.6288 34.5495 35.5696C34.6371 35.5104 34.6809 35.4228 34.6809 35.3068V35.2855C34.6809 35.0606 34.6099 34.8866 34.4679 34.7635C34.3282 34.6404 34.1293 34.5788 33.8713 34.5788C33.599 34.5788 33.3824 34.6392 33.2214 34.7599C33.0604 34.8783 32.9539 35.0275 32.9018 35.2074L31.5027 35.0938C31.5737 34.7623 31.7134 34.4759 31.9217 34.2344C32.13 33.9905 32.3987 33.8035 32.7278 33.6733C33.0592 33.5407 33.4428 33.4744 33.8784 33.4744C34.1814 33.4744 34.4714 33.5099 34.7484 33.581C35.0278 33.652 35.2752 33.7621 35.4906 33.9112C35.7084 34.0604 35.88 34.2521 36.0055 34.4865C36.131 34.7185 36.1937 34.9967 36.1937 35.321V39H34.7591V38.2436H34.7164C34.6288 38.4141 34.5117 38.5644 34.3649 38.6946C34.2181 38.8224 34.0417 38.9231 33.8358 38.9964C33.6298 39.0675 33.3919 39.103 33.122 39.103ZM33.5552 38.0589C33.7778 38.0589 33.9743 38.0152 34.1447 37.9276C34.3152 37.8376 34.4489 37.7169 34.546 37.5653C34.6431 37.4138 34.6916 37.2422 34.6916 37.0504V36.4716C34.6442 36.5024 34.5791 36.5308 34.4963 36.5568C34.4158 36.5805 34.3246 36.603 34.2228 36.6243C34.121 36.6432 34.0192 36.661 33.9174 36.6776C33.8156 36.6918 33.7233 36.7048 33.6404 36.7166C33.4629 36.7427 33.3078 36.7841 33.1752 36.8409C33.0427 36.8977 32.9397 36.9747 32.8663 37.0717C32.7929 37.1664 32.7562 37.2848 32.7562 37.4268C32.7562 37.6328 32.8308 37.7902 32.9799 37.8991C33.1315 38.0057 33.3232 38.0589 33.5552 38.0589ZM39.8248 41.1591C39.3347 41.1591 38.9145 41.0916 38.5641 40.9567C38.2161 40.8241 37.9391 40.643 37.7331 40.4134C37.5272 40.1837 37.3934 39.9257 37.3319 39.6392L38.731 39.451C38.7736 39.5599 38.8411 39.6617 38.9334 39.7564C39.0257 39.8511 39.1477 39.9268 39.2992 39.9837C39.4531 40.0429 39.6401 40.0724 39.8603 40.0724C40.1893 40.0724 40.4604 39.992 40.6735 39.831C40.8889 39.6723 40.9966 39.406 40.9966 39.032V38.0341H40.9327C40.8664 38.1856 40.767 38.3288 40.6344 38.4638C40.5018 38.5987 40.3314 38.7088 40.123 38.794C39.9147 38.8793 39.6661 38.9219 39.3773 38.9219C38.9677 38.9219 38.5949 38.8272 38.2587 38.6378C37.9249 38.446 37.6586 38.1536 37.4597 37.7607C37.2632 37.3653 37.165 36.8658 37.165 36.2621C37.165 35.6442 37.2656 35.1281 37.4668 34.7138C37.668 34.2995 37.9355 33.9893 38.2694 33.7834C38.6055 33.5774 38.9737 33.4744 39.3738 33.4744C39.6792 33.4744 39.9348 33.5265 40.1408 33.6307C40.3468 33.7325 40.5125 33.8603 40.638 34.0142C40.7658 34.1657 40.8641 34.3149 40.9327 34.4616H40.9895V33.5455H42.4917V39.0533C42.4917 39.5173 42.378 39.9055 42.1507 40.218C41.9235 40.5305 41.6086 40.7649 41.2061 40.9212C40.806 41.0798 40.3456 41.1591 39.8248 41.1591ZM39.8567 37.7855C40.1006 37.7855 40.3065 37.7251 40.4746 37.6044C40.6451 37.4813 40.7753 37.3061 40.8652 37.0788C40.9576 36.8492 41.0037 36.5746 41.0037 36.255C41.0037 35.9354 40.9587 35.6584 40.8688 35.424C40.7788 35.1873 40.6486 35.0038 40.4782 34.8736C40.3077 34.7434 40.1006 34.6783 39.8567 34.6783C39.6081 34.6783 39.3986 34.7457 39.2282 34.8807C39.0577 35.0133 38.9287 35.1979 38.8411 35.4347C38.7535 35.6714 38.7097 35.9448 38.7097 36.255C38.7097 36.5698 38.7535 36.8421 38.8411 37.0717C38.931 37.299 39.0601 37.4754 39.2282 37.6009C39.3986 37.724 39.6081 37.7855 39.8567 37.7855ZM46.1813 39.1065C45.6202 39.1065 45.1373 38.9929 44.7324 38.7656C44.33 38.536 44.0198 38.2116 43.802 37.7926C43.5842 37.3712 43.4753 36.8729 43.4753 36.2976C43.4753 35.7365 43.5842 35.2441 43.802 34.8203C44.0198 34.3965 44.3264 34.0663 44.7218 33.8295C45.1195 33.5928 45.5859 33.4744 46.1209 33.4744C46.4808 33.4744 46.8158 33.5324 47.1259 33.6484C47.4384 33.7621 47.7106 33.9337 47.9426 34.1634C48.177 34.393 48.3593 34.6818 48.4895 35.0298C48.6197 35.3755 48.6848 35.7803 48.6848 36.2443V36.6598H44.079V35.7223H47.2608C47.2608 35.5045 47.2135 35.3116 47.1188 35.1435C47.0241 34.9754 46.8927 34.844 46.7246 34.7493C46.5589 34.6522 46.3659 34.6037 46.1458 34.6037C45.9161 34.6037 45.7125 34.657 45.535 34.7635C45.3598 34.8677 45.2225 35.0085 45.123 35.1861C45.0236 35.3613 44.9727 35.5566 44.9703 35.772V36.6634C44.9703 36.9332 45.0201 37.1664 45.1195 37.3629C45.2213 37.5594 45.3645 37.7109 45.5492 37.8175C45.7338 37.924 45.9528 37.9773 46.2061 37.9773C46.3742 37.9773 46.5281 37.9536 46.6678 37.9062C46.8075 37.8589 46.927 37.7879 47.0265 37.6932C47.1259 37.5985 47.2016 37.4825 47.2537 37.3452L48.6529 37.4375C48.5819 37.7737 48.4363 38.0672 48.2161 38.3182C47.9983 38.5668 47.7166 38.7609 47.3709 38.9006C47.0276 39.0379 46.6311 39.1065 46.1813 39.1065ZM51.1848 35.8466V39H49.6721V33.5455H51.1138V34.5078H51.1777C51.2985 34.1906 51.5009 33.9396 51.785 33.755C52.0691 33.5679 52.4135 33.4744 52.8184 33.4744C53.1971 33.4744 53.5274 33.5573 53.8091 33.723C54.0909 33.8887 54.3098 34.1255 54.4661 34.4332C54.6223 34.7386 54.7005 35.1032 54.7005 35.527V39H53.1877V35.7969C53.19 35.4631 53.1048 35.2027 52.932 35.0156C52.7592 34.8262 52.5212 34.7315 52.2182 34.7315C52.0146 34.7315 51.8347 34.7753 51.6784 34.8629C51.5246 34.9505 51.4038 35.0784 51.3162 35.2464C51.231 35.4122 51.1872 35.6122 51.1848 35.8466ZM60.4311 35.1009L59.0462 35.1861C59.0225 35.0677 58.9716 34.9612 58.8935 34.8665C58.8153 34.7694 58.7124 34.6925 58.5845 34.6357C58.459 34.5765 58.3087 34.5469 58.1335 34.5469C57.8991 34.5469 57.7015 34.5966 57.5405 34.696C57.3795 34.7931 57.299 34.9233 57.299 35.0866C57.299 35.2169 57.3511 35.3269 57.4553 35.4169C57.5594 35.5069 57.7382 35.5791 57.9915 35.6335L58.9787 35.8324C59.509 35.9413 59.9044 36.1165 60.1648 36.358C60.4252 36.5994 60.5554 36.9167 60.5554 37.3097C60.5554 37.6671 60.45 37.9808 60.2393 38.2507C60.031 38.5206 59.7446 38.7313 59.38 38.8828C59.0178 39.032 58.5999 39.1065 58.1264 39.1065C57.4044 39.1065 56.8291 38.9562 56.4006 38.6555C55.9744 38.3525 55.7247 37.9406 55.6513 37.4197L57.1392 37.3416C57.1842 37.5618 57.2931 37.7299 57.4659 37.8459C57.6387 37.9595 57.8601 38.0163 58.13 38.0163C58.3951 38.0163 58.6082 37.9654 58.7692 37.8636C58.9325 37.7595 59.0154 37.6257 59.0178 37.4624C59.0154 37.325 58.9574 37.2126 58.8438 37.125C58.7301 37.035 58.5549 36.9664 58.3182 36.919L57.3736 36.7308C56.8409 36.6243 56.4444 36.4396 56.1839 36.1768C55.9259 35.9141 55.7969 35.5791 55.7969 35.1719C55.7969 34.8215 55.8916 34.5196 56.081 34.2663C56.2727 34.013 56.5414 33.8177 56.8871 33.6804C57.2351 33.5431 57.6423 33.4744 58.1087 33.4744C58.7976 33.4744 59.3397 33.62 59.7351 33.9112C60.1328 34.2024 60.3648 34.599 60.4311 35.1009Z" fill="white" />
    <defs>
        <radialGradient id="paint0_radial_1_15" cx="0" cy="0" r="1" gradientUnits="userSpaceOnUse" gradientTransform="translate(32 32) rotate(90) scale(32)">
            <stop stop-color="#000463" />
            <stop offset="1" stop-color="#2D034F" />
        </radialGradient>
    </defs>
</svg>