<svg width="64" height="64" viewBox="0 0 64 64" fill="none" xmlns="http://www.w3.org/2000/svg">
    <rect width="64" height="64" fill="url(#paint0_radial_1_9)" />
    <path d="M5.25 32.204C5.11 32.1573 4.914 32.1107 4.662 32.064C4.41933 32.008 4.13467 31.98 3.808 31.98C3.62133 31.98 3.42067 31.9987 3.206 32.036C3.00067 32.0733 2.856 32.106 2.772 32.134V38H1.078V31.028C1.40467 30.9067 1.81067 30.7947 2.296 30.692C2.79067 30.58 3.33667 30.524 3.934 30.524C4.046 30.524 4.17667 30.5333 4.326 30.552C4.47533 30.5613 4.62467 30.58 4.774 30.608C4.92333 30.6267 5.068 30.6547 5.208 30.692C5.348 30.72 5.46 30.748 5.544 30.776L5.25 32.204ZM6.31848 34.374C6.31848 33.73 6.41182 33.1653 6.59848 32.68C6.79448 32.1947 7.05115 31.7933 7.36848 31.476C7.68582 31.1493 8.04982 30.9067 8.46048 30.748C8.87115 30.58 9.29115 30.496 9.72048 30.496C10.7285 30.496 11.5125 30.8087 12.0725 31.434C12.6418 32.0593 12.9265 32.9927 12.9265 34.234C12.9265 34.3273 12.9218 34.4347 12.9125 34.556C12.9125 34.668 12.9078 34.7707 12.8985 34.864H8.06848C8.11515 35.452 8.32048 35.9093 8.68448 36.236C9.05782 36.5533 9.59448 36.712 10.2945 36.712C10.7052 36.712 11.0785 36.6747 11.4145 36.6C11.7598 36.5253 12.0305 36.446 12.2265 36.362L12.4505 37.748C12.3572 37.7947 12.2265 37.846 12.0585 37.902C11.8998 37.9487 11.7132 37.9907 11.4985 38.028C11.2932 38.0747 11.0692 38.112 10.8265 38.14C10.5838 38.168 10.3365 38.182 10.0845 38.182C9.44048 38.182 8.88048 38.0887 8.40448 37.902C7.92848 37.706 7.53648 37.44 7.22848 37.104C6.92048 36.7587 6.69182 36.3573 6.54248 35.9C6.39315 35.4333 6.31848 34.9247 6.31848 34.374ZM11.2325 33.618C11.2325 33.3847 11.1998 33.1653 11.1345 32.96C11.0692 32.7453 10.9712 32.5633 10.8405 32.414C10.7192 32.2553 10.5652 32.134 10.3785 32.05C10.2012 31.9567 9.98648 31.91 9.73448 31.91C9.47315 31.91 9.24448 31.9613 9.04848 32.064C8.85248 32.1573 8.68448 32.2833 8.54448 32.442C8.41382 32.6007 8.31115 32.7827 8.23648 32.988C8.16182 33.1933 8.11048 33.4033 8.08248 33.618H11.2325ZM14.6385 28.746L16.3325 28.466V30.678H18.9365V32.092H16.3325V35.074C16.3325 35.662 16.4259 36.082 16.6125 36.334C16.7992 36.586 17.1165 36.712 17.5645 36.712C17.8725 36.712 18.1432 36.6793 18.3765 36.614C18.6192 36.5487 18.8105 36.488 18.9505 36.432L19.2305 37.776C19.0345 37.86 18.7779 37.944 18.4605 38.028C18.1432 38.1213 17.7699 38.168 17.3405 38.168C16.8179 38.168 16.3792 38.098 16.0245 37.958C15.6792 37.818 15.4039 37.6173 15.1985 37.356C14.9932 37.0853 14.8485 36.7633 14.7645 36.39C14.6805 36.0073 14.6385 35.5733 14.6385 35.088V28.746ZM26.5801 37.776C26.2534 37.86 25.8288 37.944 25.3061 38.028C24.7834 38.1213 24.2094 38.168 23.5841 38.168C22.9961 38.168 22.5014 38.084 22.1001 37.916C21.7081 37.748 21.3908 37.5147 21.1481 37.216C20.9148 36.9173 20.7468 36.5627 20.6441 36.152C20.5414 35.732 20.4901 35.2747 20.4901 34.78V30.678H22.1841V34.514C22.1841 35.298 22.2961 35.858 22.5201 36.194C22.7534 36.53 23.1548 36.698 23.7241 36.698C23.9294 36.698 24.1441 36.6887 24.3681 36.67C24.6014 36.6513 24.7741 36.628 24.8861 36.6V30.678H26.5801V37.776ZM32.9082 32.204C32.7682 32.1573 32.5722 32.1107 32.3202 32.064C32.0775 32.008 31.7929 31.98 31.4662 31.98C31.2795 31.98 31.0789 31.9987 30.8642 32.036C30.6589 32.0733 30.5142 32.106 30.4302 32.134V38H28.7362V31.028C29.0629 30.9067 29.4689 30.7947 29.9542 30.692C30.4489 30.58 30.9949 30.524 31.5922 30.524C31.7042 30.524 31.8349 30.5333 31.9842 30.552C32.1335 30.5613 32.2829 30.58 32.4322 30.608C32.5815 30.6267 32.7262 30.6547 32.8662 30.692C33.0062 30.72 33.1182 30.748 33.2022 30.776L32.9082 32.204ZM34.3827 30.916C34.7094 30.8227 35.134 30.734 35.6567 30.65C36.1794 30.566 36.758 30.524 37.3927 30.524C37.99 30.524 38.4894 30.608 38.8907 30.776C39.292 30.9347 39.6094 31.1633 39.8427 31.462C40.0854 31.7513 40.2534 32.106 40.3467 32.526C40.4494 32.9367 40.5007 33.3893 40.5007 33.884V38H38.8067V34.15C38.8067 33.758 38.7787 33.4267 38.7227 33.156C38.676 32.876 38.592 32.652 38.4707 32.484C38.3587 32.3067 38.2 32.1807 37.9947 32.106C37.7987 32.022 37.556 31.98 37.2667 31.98C37.052 31.98 36.828 31.994 36.5947 32.022C36.3614 32.05 36.1887 32.0733 36.0767 32.092V38H34.3827V30.916ZM42.2221 33.296L48.2561 30.748L48.7181 32.134L44.0281 34.01L48.7181 35.886L48.2561 37.272L42.2221 34.724V33.296ZM50.8092 40.59H49.0732L53.8052 27.038H55.5132L50.8092 40.59ZM62.4994 34.724L56.4654 37.272L56.0034 35.886L60.6934 34.01L56.0034 32.134L56.4654 30.748L62.4994 33.296V34.724Z" fill="white" />
    <path d="M26.0582 18.2727V27H24.4645L20.6676 21.5071H20.6037V27H18.7585V18.2727H20.3778L24.1449 23.7614H24.2216V18.2727H26.0582ZM27.5827 27V18.2727H29.4279V25.4787H33.1694V27H27.5827ZM35.8636 27L33.3665 18.2727H35.3821L36.8267 24.3366H36.8991L38.4929 18.2727H40.2188L41.8082 24.3494H41.8849L43.3295 18.2727H45.3452L42.848 27H41.0497L39.3878 21.294H39.3196L37.6619 27H35.8636Z" fill="white" />
    <defs>
        <radialGradient id="paint0_radial_1_9" cx="0" cy="0" r="1" gradientUnits="userSpaceOnUse" gradientTransform="translate(32 32) rotate(90) scale(32)">
            <stop stop-color="#7600D2" />
            <stop offset="1" stop-color="#010034" />
        </radialGradient>
    </defs>
</svg>