<svg width="64" height="64" viewBox="0 0 64 64" fill="none" xmlns="http://www.w3.org/2000/svg">
    <rect width="64" height="64" fill="url(#paint0_radial_1_10)" />
    <path d="M14.924 30.298V31.824H11.942V40H10.164V31.824H7.182V30.298H14.924ZM19.5417 35.394C19.327 36.2153 19.0937 37.018 18.8417 37.802C18.599 38.5767 18.3564 39.3093 18.1137 40H16.7277C16.541 39.5707 16.345 39.0807 16.1397 38.53C15.9344 37.9793 15.729 37.3913 15.5237 36.766C15.3184 36.1407 15.113 35.4827 14.9077 34.792C14.7024 34.1013 14.5017 33.3967 14.3057 32.678H16.0977C16.1817 33.07 16.2797 33.4947 16.3917 33.952C16.5037 34.4 16.6204 34.862 16.7417 35.338C16.863 35.8047 16.989 36.262 17.1197 36.71C17.2504 37.158 17.381 37.5687 17.5117 37.942C17.6517 37.5127 17.787 37.0693 17.9177 36.612C18.0577 36.1547 18.1884 35.6973 18.3097 35.24C18.431 34.7827 18.543 34.3393 18.6457 33.91C18.7577 33.4713 18.8557 33.0607 18.9397 32.678H20.2417C20.3257 33.0607 20.419 33.4713 20.5217 33.91C20.6244 34.3393 20.7317 34.7827 20.8437 35.24C20.965 35.6973 21.091 36.1547 21.2217 36.612C21.3617 37.0693 21.5017 37.5127 21.6417 37.942C21.763 37.5687 21.889 37.158 22.0197 36.71C22.1504 36.262 22.2764 35.8047 22.3977 35.338C22.5284 34.862 22.6497 34.4 22.7617 33.952C22.8737 33.4947 22.9717 33.07 23.0557 32.678H24.8057C24.6097 33.3967 24.409 34.1013 24.2037 34.792C23.9984 35.4827 23.793 36.1407 23.5877 36.766C23.3824 37.3913 23.177 37.9793 22.9717 38.53C22.7664 39.0807 22.5657 39.5707 22.3697 40H20.9977C20.755 39.3093 20.503 38.5767 20.2417 37.802C19.9897 37.018 19.7564 36.2153 19.5417 35.394ZM27.8055 40H26.1115V32.678H27.8055V40ZM27.9875 30.536C27.9875 30.8533 27.8849 31.1053 27.6795 31.292C27.4742 31.4787 27.2315 31.572 26.9515 31.572C26.6622 31.572 26.4149 31.4787 26.2095 31.292C26.0042 31.1053 25.9015 30.8533 25.9015 30.536C25.9015 30.2093 26.0042 29.9527 26.2095 29.766C26.4149 29.5793 26.6622 29.486 26.9515 29.486C27.2315 29.486 27.4742 29.5793 27.6795 29.766C27.8849 29.9527 27.9875 30.2093 27.9875 30.536ZM29.8827 30.746L31.5767 30.466V32.678H34.1807V34.092H31.5767V37.074C31.5767 37.662 31.67 38.082 31.8567 38.334C32.0433 38.586 32.3607 38.712 32.8087 38.712C33.1167 38.712 33.3873 38.6793 33.6207 38.614C33.8633 38.5487 34.0547 38.488 34.1947 38.432L34.4747 39.776C34.2787 39.86 34.022 39.944 33.7047 40.028C33.3873 40.1213 33.014 40.168 32.5847 40.168C32.062 40.168 31.6233 40.098 31.2687 39.958C30.9233 39.818 30.648 39.6173 30.4427 39.356C30.2373 39.0853 30.0927 38.7633 30.0087 38.39C29.9247 38.0073 29.8827 37.5733 29.8827 37.088V30.746ZM35.7342 30.746L37.4282 30.466V32.678H40.0322V34.092H37.4282V37.074C37.4282 37.662 37.5216 38.082 37.7082 38.334C37.8949 38.586 38.2122 38.712 38.6602 38.712C38.9682 38.712 39.2389 38.6793 39.4722 38.614C39.7149 38.5487 39.9062 38.488 40.0462 38.432L40.3262 39.776C40.1302 39.86 39.8736 39.944 39.5562 40.028C39.2389 40.1213 38.8656 40.168 38.4362 40.168C37.9136 40.168 37.4749 40.098 37.1202 39.958C36.7749 39.818 36.4996 39.6173 36.2942 39.356C36.0889 39.0853 35.9442 38.7633 35.8602 38.39C35.7762 38.0073 35.7342 37.5733 35.7342 37.088V30.746ZM41.1408 36.374C41.1408 35.73 41.2341 35.1653 41.4208 34.68C41.6168 34.1947 41.8734 33.7933 42.1908 33.476C42.5081 33.1493 42.8721 32.9067 43.2828 32.748C43.6934 32.58 44.1134 32.496 44.5428 32.496C45.5508 32.496 46.3348 32.8087 46.8948 33.434C47.4641 34.0593 47.7488 34.9927 47.7488 36.234C47.7488 36.3273 47.7441 36.4347 47.7348 36.556C47.7348 36.668 47.7301 36.7707 47.7208 36.864H42.8908C42.9374 37.452 43.1428 37.9093 43.5068 38.236C43.8801 38.5533 44.4168 38.712 45.1168 38.712C45.5274 38.712 45.9008 38.6747 46.2368 38.6C46.5821 38.5253 46.8528 38.446 47.0488 38.362L47.2728 39.748C47.1794 39.7947 47.0488 39.846 46.8808 39.902C46.7221 39.9487 46.5354 39.9907 46.3208 40.028C46.1154 40.0747 45.8914 40.112 45.6488 40.14C45.4061 40.168 45.1588 40.182 44.9068 40.182C44.2628 40.182 43.7028 40.0887 43.2268 39.902C42.7508 39.706 42.3588 39.44 42.0508 39.104C41.7428 38.7587 41.5141 38.3573 41.3648 37.9C41.2154 37.4333 41.1408 36.9247 41.1408 36.374ZM46.0548 35.618C46.0548 35.3847 46.0221 35.1653 45.9568 34.96C45.8914 34.7453 45.7934 34.5633 45.6628 34.414C45.5414 34.2553 45.3874 34.134 45.2008 34.05C45.0234 33.9567 44.8088 33.91 44.5568 33.91C44.2954 33.91 44.0668 33.9613 43.8708 34.064C43.6748 34.1573 43.5068 34.2833 43.3668 34.442C43.2361 34.6007 43.1334 34.7827 43.0588 34.988C42.9841 35.1933 42.9328 35.4033 42.9048 35.618H46.0548ZM53.7168 34.204C53.5768 34.1573 53.3808 34.1107 53.1288 34.064C52.8861 34.008 52.6015 33.98 52.2748 33.98C52.0881 33.98 51.8875 33.9987 51.6728 34.036C51.4675 34.0733 51.3228 34.106 51.2388 34.134V40H49.5448V33.028C49.8715 32.9067 50.2775 32.7947 50.7628 32.692C51.2575 32.58 51.8035 32.524 52.4008 32.524C52.5128 32.524 52.6435 32.5333 52.7928 32.552C52.9421 32.5613 53.0915 32.58 53.2408 32.608C53.3901 32.6267 53.5348 32.6547 53.6748 32.692C53.8148 32.72 53.9268 32.748 54.0108 32.776L53.7168 34.204Z" fill="white" />
    <path d="M15.7585 18.2727H18.0341L20.4375 24.1364H20.5398L22.9432 18.2727H25.2188V27H23.429V21.3196H23.3565L21.098 26.9574H19.8793L17.6207 21.2983H17.5483V27H15.7585V18.2727ZM26.7049 27V20.4545H28.5202V27H26.7049ZM27.6168 19.6108C27.3469 19.6108 27.1154 19.5213 26.9222 19.3423C26.7319 19.1605 26.6367 18.9432 26.6367 18.6903C26.6367 18.4403 26.7319 18.2259 26.9222 18.0469C27.1154 17.8651 27.3469 17.7741 27.6168 17.7741C27.8867 17.7741 28.1168 17.8651 28.3072 18.0469C28.5004 18.2259 28.5969 18.4403 28.5969 18.6903C28.5969 18.9432 28.5004 19.1605 28.3072 19.3423C28.1168 19.5213 27.8867 19.6108 27.6168 19.6108ZM32.9318 27.1278C32.2614 27.1278 31.6847 26.9858 31.2017 26.7017C30.7216 26.4148 30.3523 26.017 30.0938 25.5085C29.8381 25 29.7102 24.4148 29.7102 23.7528C29.7102 23.0824 29.8395 22.4943 30.098 21.9886C30.3594 21.4801 30.7301 21.0838 31.2102 20.7997C31.6903 20.5128 32.2614 20.3693 32.9233 20.3693C33.4943 20.3693 33.9943 20.473 34.4233 20.6804C34.8523 20.8878 35.1918 21.179 35.4418 21.554C35.6918 21.929 35.8295 22.3693 35.8551 22.875H34.142C34.0938 22.5483 33.9659 22.2855 33.7585 22.0866C33.554 21.8849 33.2855 21.7841 32.9531 21.7841C32.6719 21.7841 32.4261 21.8608 32.2159 22.0142C32.0085 22.1648 31.8466 22.3849 31.7301 22.6747C31.6136 22.9645 31.5554 23.3153 31.5554 23.7273C31.5554 24.1449 31.6122 24.5 31.7259 24.7926C31.8423 25.0852 32.0057 25.3082 32.2159 25.4616C32.4261 25.6151 32.6719 25.6918 32.9531 25.6918C33.1605 25.6918 33.3466 25.6491 33.5114 25.5639C33.679 25.4787 33.8168 25.3551 33.9247 25.1932C34.0355 25.0284 34.108 24.831 34.142 24.6009H35.8551C35.8267 25.1009 35.6903 25.5412 35.446 25.9219C35.2045 26.2997 34.8707 26.5952 34.4446 26.8082C34.0185 27.0213 33.5142 27.1278 32.9318 27.1278ZM37.0174 27V20.4545H38.7773V21.5966H38.8455C38.9648 21.1903 39.1651 20.8835 39.4464 20.6761C39.7276 20.4659 40.0515 20.3608 40.418 20.3608C40.5089 20.3608 40.6069 20.3665 40.712 20.3778C40.8171 20.3892 40.9094 20.4048 40.989 20.4247V22.0355C40.9038 22.0099 40.7859 21.9872 40.6353 21.9673C40.4847 21.9474 40.3469 21.9375 40.2219 21.9375C39.9549 21.9375 39.7163 21.9957 39.506 22.1122C39.2987 22.2259 39.1339 22.3849 39.0117 22.5895C38.8924 22.794 38.8327 23.0298 38.8327 23.2969V27H37.0174ZM44.5803 27.1278C43.9183 27.1278 43.3459 26.9872 42.8629 26.706C42.3828 26.4219 42.0121 26.027 41.7507 25.5213C41.4893 25.0128 41.3587 24.4233 41.3587 23.7528C41.3587 23.0767 41.4893 22.4858 41.7507 21.9801C42.0121 21.4716 42.3828 21.0767 42.8629 20.7955C43.3459 20.5114 43.9183 20.3693 44.5803 20.3693C45.2422 20.3693 45.8132 20.5114 46.2933 20.7955C46.7763 21.0767 47.1484 21.4716 47.4098 21.9801C47.6712 22.4858 47.8018 23.0767 47.8018 23.7528C47.8018 24.4233 47.6712 25.0128 47.4098 25.5213C47.1484 26.027 46.7763 26.4219 46.2933 26.706C45.8132 26.9872 45.2422 27.1278 44.5803 27.1278ZM44.5888 25.7216C44.8899 25.7216 45.1413 25.6364 45.343 25.4659C45.5447 25.2926 45.6967 25.0568 45.799 24.7585C45.9041 24.4602 45.9567 24.1207 45.9567 23.7401C45.9567 23.3594 45.9041 23.0199 45.799 22.7216C45.6967 22.4233 45.5447 22.1875 45.343 22.0142C45.1413 21.8409 44.8899 21.7543 44.5888 21.7543C44.2848 21.7543 44.0291 21.8409 43.8217 22.0142C43.6172 22.1875 43.4624 22.4233 43.3572 22.7216C43.255 23.0199 43.2038 23.3594 43.2038 23.7401C43.2038 24.1207 43.255 24.4602 43.3572 24.7585C43.4624 25.0568 43.6172 25.2926 43.8217 25.4659C44.0291 25.6364 44.2848 25.7216 44.5888 25.7216Z" fill="white" />
    <defs>
        <radialGradient id="paint0_radial_1_10" cx="0" cy="0" r="1" gradientUnits="userSpaceOnUse" gradientTransform="translate(32 32) rotate(90) scale(32)">
            <stop stop-color="#010034" />
            <stop offset="1" stop-color="#001374" />
        </radialGradient>
    </defs>
</svg>